{
    "asset" : {
        "generator" : "Khronos glTF Blender I/O v1.3.48",
        "version" : "2.0"
    },
    "scene" : 0,
    "scenes" : [
        {
            "name" : "Scene",
            "nodes" : [
                0,
                1,
                2,
                3
            ]
        }
    ],
    "nodes" : [
        {
            "name" : "Light",
            "rotation" : [
                0.16907575726509094,
                0.7558803558349609,
                -0.27217137813568115,
                0.570947527885437
            ],
            "translation" : [
                4.076245307922363,
                5.903861999511719,
                -1.0054539442062378
            ]
        },
        {
            "mesh" : 0,
            "name" : "Torus",
            "rotation" : [
                0.7071068286895752,
                0,
                0,
                0.7071068286895752
            ]
        },
        {
            "name" : "Empty",
            "scale" : [
                0.6652651429176331,
                0.6652651429176331,
                0.6652651429176331
            ],
            "translation" : [
                -0.8211158514022827,
                0.5690825581550598,
                0.011095516383647919
            ]
        },
        {
            "name" : "Camera",
            "rotation" : [
                0.6544607281684875,
                -3.935916174668819e-05,
                -0.008804716169834137,
                0.7560447454452515
            ],
            "translation" : [
                0.48775559663772583,
                1.0465790033340454,
                8.655022621154785
            ]
        }
    ],
    "materials" : [
        {
            "doubleSided" : true,
            "emissiveFactor" : [
                0,
                0,
                0
            ],
            "name" : "Material.001",
            "pbrMetallicRoughness" : {
                "metallicFactor" : 0,
                "roughnessFactor" : 0.5
            }
        }
    ],
    "meshes" : [
        {
            "name" : "Torus",
            "primitives" : [
                {
                    "attributes" : {
                        "POSITION" : 0,
                        "NORMAL" : 1,
                        "TEXCOORD_0" : 2
                    },
                    "indices" : 3,
                    "material" : 0
                }
            ]
        }
    ],
    "accessors" : [
        {
            "bufferView" : 0,
            "componentType" : 5126,
            "count" : 5365,
            "max" : [
                1.25,
                0.25,
                1.25
            ],
            "min" : [
                -1.25,
                -0.25,
                -1.25
            ],
            "type" : "VEC3"
        },
        {
            "bufferView" : 1,
            "componentType" : 5126,
            "count" : 5365,
            "type" : "VEC3"
        },
        {
            "bufferView" : 2,
            "componentType" : 5126,
            "count" : 5365,
            "type" : "VEC2"
        },
        {
            "bufferView" : 3,
            "componentType" : 5123,
            "count" : 31104,
            "type" : "SCALAR"
        }
    ],
    "bufferViews" : [
        {
            "buffer" : 0,
            "byteLength" : 64380,
            "byteOffset" : 0
        },
        {
            "buffer" : 0,
            "byteLength" : 64380,
            "byteOffset" : 64380
        },
        {
            "buffer" : 0,
            "byteLength" : 42920,
            "byteOffset" : 128760
        },
        {
            "buffer" : 0,
            "byteLength" : 62208,
            "byteOffset" : 171680
        }
    ],
    "buffers" : [
        {
            "byteLength" : 233888,
            "uri" : "data:application/octet-stream;base64,"
        }
    ]
}
